<svg version="1.1" viewBox="0 0 96 96" xmlns="http://www.w3.org/2000/svg" xmlns:xlink="http://www.w3.org/1999/xlink" id="Icons_Internet" overflow="hidden"><path d=" M 76 60 L 20 60 L 20 26 L 76 26 Z M 82 24 C 82 21.7909 80.2091 20 78 20 L 18 20 C 15.7909 20 14 21.7909 14 24 L 14 66 L 82 66 Z"/><path d=" M 54 70 L 54 71 C 54.0343 71.518 53.6421 71.9657 53.1241 72 C 53.0828 72.0027 53.0413 72.0027 53 72 L 43 72 C 42.482 72.0343 42.0343 71.6421 42 71.1241 C 41.9973 71.0828 41.9973 71.0413 42 71 L 42 70 L 2 70 L 2 72 C 2 74.2091 3.79086 76 6 76 L 90 76 C 92.2091 76 94 74.2091 94 72 L 94 70 Z"/><path d=" M 48 29 C 40.268 29 34 35.268 34 43 C 34 50.732 40.268 57 48 57 C 55.732 57 62 50.732 62 43 C 62 35.268 55.732 29 48 29 Z M 49 44 L 53.59 44 C 53.0673 47.4474 51.4595 50.6385 49 53.11 Z M 49 42 L 49 32.88 C 51.462 35.3538 53.07 38.5488 53.59 42 Z M 47 42 L 42.56 42 C 43.0573 38.6079 44.6109 35.4588 47 33 Z M 47 44 L 47 53 C 44.6154 50.538 43.0625 47.3905 42.56 44 Z M 40.55 42 L 36.27 42 C 36.7139 36.762 40.5802 32.4549 45.74 31.45 C 42.8892 34.2947 41.0637 38.0055 40.55 42 Z M 40.55 44 C 41.0641 48.0014 42.8974 51.7173 45.76 54.56 C 40.5925 53.5558 36.7185 49.245 36.27 44 Z M 55.6 44 L 59.73 44 C 59.2921 49.1786 55.507 53.4557 50.42 54.52 C 53.2693 51.6876 55.0922 47.9854 55.6 44 Z M 55.6 42 C 55.0881 38.025 53.2776 34.3303 50.45 31.49 C 55.5219 32.5648 59.2915 36.8341 59.73 42 Z"/></svg>