<svg version="1.1" viewBox="0 0 96 96" xmlns="http://www.w3.org/2000/svg" xmlns:xlink="http://www.w3.org/1999/xlink" id="Icons_Bank" overflow="hidden"><path d=" M 79 75 L 79 73 L 75 73 L 75 39 L 79 39 L 79 37 L 82 37 L 82 31 L 79 31 L 48 12 L 17 31 L 14 31 L 14 37 L 17 37 L 17 39 L 21 39 L 21 73 L 17 73 L 17 75 L 10 80 L 10 84 L 48 84 L 86 84 L 86 80 L 79 75 Z M 33 73 L 27 73 L 27 39 L 33 39 L 33 73 Z M 45 73 L 39 73 L 39 39 L 45 39 L 45 73 Z M 47 29 C 44.8 29 43 27.2 43 25 C 43 22.8 44.8 21 47 21 C 49.2 21 51 22.8 51 25 C 51 27.2 49.2 29 47 29 Z M 57 73 L 51 73 L 51 39 L 57 39 L 57 73 Z M 69 73 L 63 73 L 63 39 L 69 39 L 69 73 Z"/></svg>