<svg version="1.1" viewBox="0 0 96 96" xmlns="http://www.w3.org/2000/svg" xmlns:xlink="http://www.w3.org/1999/xlink" id="Icons_SuburbanScene" overflow="hidden"><path d=" M 63 31.28 L 45 14.14 L 45 14.14 L 9 48.39 L 12.89 51.71 L 45 21.21 L 45 21.21 L 61.71 37.09 C 62.0145 35.1276 62.4454 33.1869 63 31.28 Z"/><path d=" M 79 75 L 79 54.81 C 85 53.73 89.5 47.91 89.5 39.62 C 89.5 30.42 80 11.4 77 11.4 C 74 11.4 64.5 30.4 64.5 39.62 C 64.5 47.91 69.05 53.73 75 54.81 L 75 75 L 71 75 L 71 56.66 C 65.7 54.17 62 48.4 61.56 41.2 L 45 26 L 19 49.87 L 19 75 L 13 75 L 13 73.51 L 14.69 73.51 C 15.389 73.5038 15.9869 73.0062 16.12 72.32 L 16.12 72.32 C 16.4065 71.0554 17.0283 69.8913 17.92 68.95 C 18.0447 68.8327 18.0506 68.6365 17.9333 68.5118 C 17.8506 68.424 17.7245 68.392 17.61 68.43 C 15.8628 68.8376 14.2654 69.7281 13 71 L 13 68.2 C 17.46 67.46 15 61.65 15 61.65 C 14.9159 61.5009 14.7268 61.4482 14.5777 61.5323 C 14.5285 61.5601 14.4878 61.6008 14.46 61.65 L 13.39 63.47 L 12.32 61.65 C 12.2609 61.5516 12.1548 61.491 12.04 61.49 C 11.9288 61.4944 11.8273 61.5545 11.77 61.65 L 10.7 63.47 L 9.59 61.65 C 9.49963 61.4981 9.30325 61.4483 9.15137 61.5386 C 9.10555 61.5659 9.06726 61.6042 9.04 61.65 C 9.04 61.65 6.55 67.45 11.04 68.2 L 11.04 70.94 C 9.77087 69.6939 8.18264 68.8219 6.45 68.42 C 6.28749 68.3661 6.11207 68.4542 6.0582 68.6167 C 6.02025 68.7312 6.05216 68.8573 6.14 68.94 C 7.03499 69.879 7.65727 71.044 7.94 72.31 L 7.94 72.31 C 8.07311 72.9962 8.67103 73.4938 9.37 73.5 L 11 73.5 L 11 75 L 3 75 L 3 81 L 92 81 L 92 75 Z M 35 64 L 25 64 L 25 54 L 35 54 Z M 50 75 L 40 75 L 40 54 L 50 54 Z M 65 64 L 55 64 L 55 54 L 65 54 Z"/></svg>