<svg version="1.1" viewBox="0 0 96 96" xmlns="http://www.w3.org/2000/svg" xmlns:xlink="http://www.w3.org/1999/xlink" id="Icons_CustomerReview_LTR" overflow="hidden"><circle cx="69.25" cy="56.53" r="7.78"/><circle cx="27.76" cy="56.53" r="7.78"/><path d=" M 83.26 71.05 C 81.0154 69.3044 78.4191 68.066 75.65 67.42 C 73.5687 66.812 71.4175 66.4758 69.25 66.42 C 67.0807 66.4151 64.9241 66.7526 62.86 67.42 C 60.7943 67.97 58.8201 68.819 57 69.94 L 56.64 70.35 C 59.5474 71.1348 62.2677 72.495 64.64 74.35 C 66.5046 75.7199 67.5923 77.9065 67.56 80.22 L 67.56 82 L 84.81 82 L 84.81 74.17 C 84.8441 72.937 84.2632 71.7677 83.26 71.05 Z"/><path d=" M 29.48 80.22 C 29.4816 77.9674 30.5176 75.8402 32.29 74.45 L 32.4 74.35 L 32.53 74.26 C 34.9304 72.5518 37.5868 71.2354 40.4 70.36 C 40.2 70.15 40.01 69.93 39.83 69.71 C 38.0558 68.6793 36.143 67.9081 34.15 67.42 C 32.072 66.8128 29.9242 66.4767 27.76 66.42 C 25.5873 66.4144 23.4274 66.7519 21.36 67.42 C 18.6297 68.1732 16.0536 69.402 13.75 71.05 C 12.78 71.7965 12.2053 72.9461 12.19 74.17 L 12.19 82 L 29.48 82 Z"/><path d=" M 32.94 88 L 32.94 80.22 C 32.9447 78.9963 33.522 77.8454 34.5 77.11 C 36.799 75.4543 39.3765 74.2248 42.11 73.48 C 44.1731 72.8082 46.3303 72.4706 48.5 72.48 C 50.668 72.5309 52.8198 72.8672 54.9 73.48 C 57.6721 74.1175 60.2701 75.3567 62.51 77.11 C 63.5168 77.8211 64.1021 78.9879 64.07 80.22 L 64.07 88 Z"/><circle cx="48.5" cy="62.58" r="7.78"/><path d=" M 81 8 L 16.25 8 C 14.0409 8 12.25 9.79086 12.25 12 L 12.25 34 C 12.25 36.2091 14.0409 38 16.25 38 L 31 38 L 31 44 L 37.3 38 L 44.1 38 L 48 44 L 51.6 38 L 58.7 38 L 65 44 L 65 38 L 81 38 C 83.2091 38 85 36.2091 85 34 L 85 12 C 85 9.79086 83.2091 8 81 8 Z M 22.25 17 L 69 17 L 69 19 L 22.25 19 Z M 59 29 L 22.25 29 L 22.25 27 L 59 27 Z M 75 24 L 22.25 24 L 22.25 22 L 75 22 Z"/></svg>